<svg width="50" height="50" viewBox="0 0 50 50" fill="none" xmlns="http://www.w3.org/2000/svg">
<rect width="50" height="50" rx="10" fill="#F6F4F3"/>
<path d="M21.5 21.011C21.3467 20.8423 21.1243 20.666 20.833 20.482C20.5417 20.2827 20.1967 20.0987 19.798 19.93C19.3993 19.7613 18.97 19.6233 18.51 19.516C18.05 19.4087 17.5747 19.355 17.084 19.355C16.0107 19.355 15.2133 19.5543 14.692 19.953C14.1707 20.3517 13.91 20.9037 13.91 21.609C13.91 22.1303 14.0557 22.5443 14.347 22.851C14.6383 23.1423 15.083 23.3877 15.681 23.587C16.279 23.7863 17.0303 24.001 17.935 24.231C19.039 24.4917 19.9973 24.806 20.81 25.174C21.6227 25.5267 22.2437 26.002 22.673 26.6C23.1023 27.198 23.317 27.9877 23.317 28.969C23.317 29.797 23.1637 30.51 22.857 31.108C22.5503 31.706 22.121 32.1967 21.569 32.58C21.017 32.948 20.3807 33.224 19.66 33.408C18.9393 33.5767 18.165 33.661 17.337 33.661C16.5243 33.661 15.7117 33.5767 14.899 33.408C14.1017 33.2393 13.335 32.994 12.599 32.672C11.8783 32.3347 11.2113 31.9283 10.598 31.453L11.771 29.245C11.9703 29.4443 12.254 29.6667 12.622 29.912C13.0053 30.142 13.4423 30.3643 13.933 30.579C14.439 30.7937 14.9833 30.9777 15.566 31.131C16.164 31.269 16.7697 31.338 17.383 31.338C18.4103 31.338 19.1923 31.1617 19.729 30.809C20.281 30.441 20.557 29.9197 20.557 29.245C20.557 28.693 20.3807 28.256 20.028 27.934C19.6753 27.5967 19.1617 27.313 18.487 27.083C17.8123 26.853 17.0073 26.623 16.072 26.393C14.9987 26.1017 14.1017 25.7873 13.381 25.45C12.6603 25.0973 12.116 24.6527 11.748 24.116C11.3953 23.564 11.219 22.8663 11.219 22.023C11.219 20.9497 11.4797 20.045 12.001 19.309C12.5223 18.5577 13.2277 17.998 14.117 17.63C15.0217 17.2467 16.0337 17.055 17.153 17.055C17.889 17.055 18.5867 17.1393 19.246 17.308C19.9053 17.4613 20.5187 17.676 21.086 17.952C21.6687 18.228 22.1977 18.5423 22.673 18.895L21.5 21.011ZM38.7345 29.291C38.7345 30.165 38.5045 30.9163 38.0445 31.545C37.5999 32.1737 36.9942 32.6567 36.2275 32.994C35.4609 33.3313 34.6175 33.5 33.6975 33.5H25.9005V17.17H34.3185C35.0852 17.17 35.7445 17.377 36.2965 17.791C36.8639 18.1897 37.2932 18.711 37.5845 19.355C37.8912 19.9837 38.0445 20.643 38.0445 21.333C38.0445 22.1303 37.8375 22.8817 37.4235 23.587C37.0249 24.277 36.4499 24.7907 35.6985 25.128C36.6339 25.404 37.3699 25.91 37.9065 26.646C38.4585 27.3667 38.7345 28.2483 38.7345 29.291ZM36.0895 28.808C36.0895 28.348 35.9899 27.934 35.7905 27.566C35.6065 27.1827 35.3459 26.876 35.0085 26.646C34.6865 26.4007 34.3032 26.278 33.8585 26.278H28.4765V31.269H33.6975C34.1575 31.269 34.5639 31.1617 34.9165 30.947C35.2845 30.717 35.5682 30.418 35.7675 30.05C35.9822 29.6667 36.0895 29.2527 36.0895 28.808ZM28.4765 19.401V24.208H33.2145C33.6439 24.208 34.0272 24.1083 34.3645 23.909C34.7019 23.6943 34.9702 23.4107 35.1695 23.058C35.3689 22.69 35.4685 22.276 35.4685 21.816C35.4685 21.3407 35.3765 20.9267 35.1925 20.574C35.0085 20.206 34.7555 19.9223 34.4335 19.723C34.1269 19.5083 33.7665 19.401 33.3525 19.401H28.4765Z" fill="#0E0E0C"/>
</svg>
